<?xml version="1.0" encoding="utf-8" ?><svg xmlns="http://www.w3.org/2000/svg" xmlns:xlink="http://www.w3.org/1999/xlink" width="962" height="722" viewBox="0 0 962 722"><path fill="#1C4935" transform="matrix(1.66724 0 0 1.66744 0 6.10352e-05)" d="M133.263 173.134C138.047 172.718 143.582 172.694 148.264 173.776C159.375 176.342 168.48 183.683 174.465 193.221C175.85 195.428 178.356 200.039 177.751 202.681C175.933 203.898 173.409 204.536 171.365 205.344C155.916 211.454 145.828 221.545 139.244 236.715C138.643 238.289 137.94 239.837 137.287 241.391C135.39 238.068 134.185 234.297 132.297 230.917C126.462 220.472 118.62 212.729 107.925 207.369C104.727 205.766 101.366 204.564 98.196 202.891C99.7078 196.747 102 191.651 106.292 186.881C113.093 179.322 123.023 173.684 133.263 173.134Z"/><path fill="#668A55" transform="matrix(1.66724 0 0 1.66744 0 6.10352e-05)" d="M176.974 207.294C177.047 207.311 177.125 207.316 177.194 207.346C177.453 207.461 177.804 207.642 177.945 207.892C180.981 213.293 179.554 225.727 177.771 231.744C176.571 235.797 174.895 239.778 172.66 243.372C166.886 252.656 151.767 267.635 142.106 272.845L141.55 273.222C141.036 273.018 140.934 272.998 140.715 272.45C140.011 270.686 140.141 267.866 140.039 265.968C139.514 256.171 139.533 246.621 143.294 237.392C149.701 221.671 161.879 213.634 176.974 207.294Z"/><path fill="#764B30" transform="matrix(1.66724 0 0 1.66744 0 6.10352e-05)" d="M97.4906 207.962C106.973 210.306 117.078 218.207 123.496 225.385C125.77 227.928 127.604 230.747 129.293 233.7C136.885 246.978 135.404 259.172 134.575 273.76C127.027 271.204 110.01 253.482 105.203 246.577C97.2075 235.091 95.0601 221.621 97.4906 207.962Z"/><path fill="#1C4935" transform="matrix(1.66724 0 0 1.66744 0 6.10352e-05)" d="M212.972 200.259C224.085 197.961 234.946 205.143 237.182 216.268C239.418 227.394 232.175 238.214 221.037 240.388C209.986 242.544 199.268 235.371 197.05 224.333C194.831 213.295 201.946 202.538 212.972 200.259ZM218.752 232C225.114 231.088 229.575 225.252 228.786 218.874C227.997 212.497 222.249 207.924 215.856 208.589C211.61 209.031 207.934 211.733 206.244 215.653C204.554 219.573 205.114 224.1 207.708 227.491C210.303 230.881 214.526 232.605 218.752 232Z"/><path fill="#1C4935" transform="matrix(1.66724 0 0 1.66744 0 6.10352e-05)" d="M256.511 200.153C257.739 200.092 259.03 200.164 260.26 200.215C264.133 200.374 267.023 202.086 269.588 204.886C270.402 203.519 271.667 202.523 273.063 201.784C277.048 199.677 284.186 199.549 288.429 200.878C291.081 201.68 293.285 203.542 294.521 206.023C295.259 207.489 295.633 209.121 295.791 210.748C296.069 213.6 296.259 236.382 295.687 238.131C294.447 239.199 289.9 238.647 288.242 238.609C288.213 232.956 288.215 227.302 288.25 221.649C288.257 218.507 288.453 215.213 288.106 212.094C287.885 210.107 286.936 208.38 285.335 207.179C283.516 205.813 281.575 205.458 279.365 205.79C276.7 206.189 275.133 207.66 273.623 209.728C272.806 214.545 272.988 219.717 273.071 224.585C273.127 229.279 273.023 233.989 272.993 238.684C270.619 238.729 268.264 238.737 265.89 238.645C264.567 231.961 267.329 213.114 263.802 208.698C262.483 207.048 260.362 205.887 258.251 205.767C256.005 205.64 253.192 206.342 251.525 207.912C250.727 208.663 250.406 209.478 250.214 210.539C249.646 213.68 249.949 217.234 249.961 220.428C250.031 226.513 250.027 232.598 249.95 238.682C247.924 238.732 244.586 239.21 242.827 238.144C242.353 237.218 242.318 236.181 242.289 235.158C242.182 231.423 242.317 227.653 242.295 223.911C242.267 219.153 241.712 213.777 242.715 209.122C243.154 207.088 243.976 205.171 245.433 203.654C248.396 200.568 252.487 200.245 256.511 200.153Z"/><path fill="#1C4935" transform="matrix(1.66724 0 0 1.66744 0 6.10352e-05)" d="M320.113 200.16C323.597 199.834 328.097 199.806 331.367 201.102C333.931 202.119 336.114 204.061 337.205 206.618C337.743 207.88 337.979 209.224 338.082 210.585C338.334 213.93 338.515 236.528 337.796 238.256C337.512 238.419 337.252 238.572 336.931 238.652C335.605 238.984 333.832 238.877 332.639 238.234C332 236.991 331.952 235.384 331.78 234C329.555 235.815 327.409 237.448 324.644 238.339C320.445 239.69 314.209 239.71 310.223 237.652C307.693 236.347 306.024 234.395 305.156 231.694C304.673 228.19 304.637 224.436 306.873 221.475C312.061 214.604 323.783 216.647 331.291 215.643C330.775 212.709 330.448 210.161 328.857 207.579C327.338 206.765 325.896 205.965 324.185 205.655C318.843 204.688 314.379 207.749 310.222 210.633C308.987 209.504 306.516 207.264 306.336 205.557C306.469 205.006 306.59 204.626 306.991 204.209C309.729 201.366 316.352 200.275 320.113 200.16ZM318.702 233.684C322.061 233.421 326.146 232.548 328.513 229.929C330.788 227.414 330.541 224.406 330.948 221.287C328.806 221.173 326.736 221.099 324.592 221.267C320.752 221.561 315.546 221.928 312.833 225.051C312.101 225.893 311.709 226.923 311.833 228.044C312.018 229.727 313.244 231.224 314.568 232.204C315.799 233.116 317.205 233.474 318.702 233.684Z"/><path fill="#1C4935" transform="matrix(1.66724 0 0 1.66744 0 6.10352e-05)" d="M435.05 200.144C435.597 200.106 436.146 200.088 436.695 200.091C441.688 200.123 446.096 200.666 449.758 204.393C454.674 209.395 454.051 215.465 453.961 221.926C444.53 221.655 435.025 221.906 425.587 221.961C425.702 223.341 425.909 224.827 426.391 226.13C427.423 228.921 429.325 231.331 432.097 232.539C436.706 234.547 441.619 233.214 446.064 231.47C446.283 231.342 446.506 231.219 446.725 231.09C447.18 230.823 447.678 230.464 448.202 230.358C448.973 230.202 450.025 230.575 450.628 231.043C451.231 231.511 451.519 232.074 451.565 232.835C451.618 233.7 451.284 234.455 450.722 235.099C448.502 237.647 443.554 238.638 440.352 238.929C434.547 239.458 427.975 239.469 423.316 235.464C419.892 232.521 419.054 228.484 418.783 224.159C418.378 217.689 418.52 209.915 423.103 204.844C426.312 201.292 430.442 200.334 435.05 200.144ZM425.68 216.288C430.056 216.257 434.432 216.25 438.807 216.267L447.789 216.263C447.059 212.743 446.068 209.218 442.898 207.127C440.435 205.502 437.607 205.217 434.731 205.506C432.098 205.91 429.704 207.034 428.092 209.228C426.536 211.346 426.071 213.754 425.68 216.288Z"/><path fill="#1C4935" transform="matrix(1.66724 0 0 1.66744 0 6.10352e-05)" d="M380.707 187.376C383.018 187.156 385.402 187.264 387.723 187.258C388.094 193.111 387.858 199.112 387.872 204.981C387.885 210.981 388.202 217.122 387.609 223.093C390.142 217.895 400.777 204.779 405.211 200.898C407.964 200.614 410.684 200.644 413.448 200.677C408.635 206.285 403.445 211.516 398.887 217.35C401.268 220.437 403.611 223.552 405.917 226.696C408.751 230.372 411.751 234.405 413.998 238.458C411.18 238.747 408.431 238.764 405.609 238.578C402.061 235.507 397.233 227.063 394.506 222.795C389.021 230.315 387.847 228.852 387.94 238.649C385.62 238.802 383.24 238.697 380.913 238.691C380.39 228.548 380.77 218.208 380.721 208.036C380.701 203.849 380.725 199.654 380.62 195.468C380.565 193.302 380.307 191.041 380.391 188.883C380.411 188.366 380.546 187.866 380.707 187.376Z"/><path fill="#1C4935" transform="matrix(1.66724 0 0 1.66744 0 6.10352e-05)" d="M464.372 191.283C466.727 191.299 469.082 191.296 471.437 191.277C471.726 194.293 471.737 197.276 471.716 200.303C474.071 200.281 476.484 200.042 478.821 200.08C479.72 200.095 480.673 200.282 481.277 201.005C482.361 202.302 481.871 204.555 481.743 206.127C478.408 205.836 474.983 206.052 471.629 205.975C471.846 213.564 470.927 222.748 472.083 230.087C472.519 230.67 472.96 231.286 473.489 231.788C475.612 233.805 478.799 233.291 481.471 233.18C481.501 234.68 481.478 236.185 481.478 237.686L481.069 238.428C479.431 239.591 475.158 239.065 473.162 239.008C470.579 238.935 468.21 238.447 466.405 236.403C465.382 235.244 464.908 233.559 464.67 232.061C464.064 228.252 464.389 224.1 464.38 220.243C464.369 215.689 464.149 211.011 464.498 206.476C462.715 206.265 459.552 206.546 458.19 205.246C457.624 204.705 457.44 203.889 457.445 203.13C457.451 202.398 457.614 201.594 458.16 201.069C459.582 199.703 462.751 200.267 464.574 200.35C464.483 197.307 464.171 194.334 464.372 191.283Z"/><path fill="#1C4935" transform="matrix(1.66724 0 0 1.66744 0 6.10352e-05)" d="M355.471 206.579C356.197 205.487 356.757 204.088 357.612 203.107C359.015 201.496 363.202 200.577 365.243 200.349C367.282 200.12 371.598 199.435 373.305 200.782C373.955 202.158 373.678 204.524 373.682 206.033C369.459 205.806 365.413 205.959 361.711 208.293C358.523 210.303 356.93 213.192 356.114 216.796C355.585 224.045 356.069 231.372 355.838 238.643C353.558 238.731 351.258 238.698 348.975 238.72C348.447 233.988 348.652 229.399 348.709 224.651C348.734 220.054 348.721 215.457 348.667 210.86C348.638 208.301 347.985 203.955 348.393 201.645C348.53 200.87 349.035 200.711 349.647 200.377C351.6 200.449 353.558 200.636 355.508 200.778C355.795 202.795 355.685 204.56 355.471 206.579Z"/><path fill="#142816" transform="matrix(1.66724 0 0 1.66744 0 6.10352e-05)" d="M402.073 257.583C402.387 257.701 402.638 257.886 402.918 258.067C403.497 259.062 403.383 260.08 403.37 261.194C404.349 261.265 405.382 261.237 406.347 261.413C407.11 261.552 407.823 261.989 408.212 262.675C408.999 264.063 408.214 266.253 407.838 267.675C405.143 268.534 397.415 268.698 394.573 268.188C393.937 267.653 393.993 267.24 393.825 266.443C395.072 264.54 396.128 265.132 397.636 263.989C398.062 263.667 398.069 263.488 398.129 263.003C397.262 262.508 395.981 262.748 394.998 262.715L394.595 262.218C394.757 261.705 394.609 261.861 395.063 261.6C395.834 261.156 396.85 261.121 397.692 261.363C400.339 262.125 398.916 265.475 400.082 267.105C400.316 267.432 400.671 267.342 401.037 267.376C402.658 266.223 401.23 259.882 402.004 257.755C402.025 257.697 402.05 257.64 402.073 257.583Z"/><path fill="#1C4935" transform="matrix(1.66724 0 0 1.66744 0 6.10352e-05)" d="M339.545 258.304C340.261 258.246 340.958 258.233 341.676 258.274C342.69 258.334 343.294 258.5 343.961 259.249C344.099 260.055 343.704 260.618 343.398 261.334C342.99 262.288 342.619 262.956 343.081 263.972C343.255 264.356 343.287 264.531 343.693 264.687C344.375 264.426 344.953 263.162 345.343 262.545L345.639 262.578C346.101 263.698 345.645 264.516 345.515 265.644C345.423 266.446 346.083 267.069 346.563 267.639L346.724 268.188C346.206 268.517 346.166 268.46 345.547 268.376C345.172 267.997 344.872 267.708 344.404 267.44C344.268 267.497 344.132 267.553 343.993 267.605C342.338 268.216 340.1 268.771 338.43 268.033C338.142 267.697 337.89 267.531 337.82 267.08C337.604 265.708 338.533 264.232 339.262 263.158C339.198 261.543 338.979 259.846 339.545 258.304Z"/><path fill="#1C4935" transform="matrix(1.66724 0 0 1.66744 0 6.10352e-05)" d="M300.879 268.109C300.467 267.09 300.174 266.099 300.155 264.99C300.138 263.946 300.402 262.983 301.16 262.232C301.856 261.543 303.017 261.131 303.991 261.158C304.917 261.184 306.482 261.353 307.132 262.004L307.122 262.854C307.074 264.766 307.587 269.024 306.066 270.429C305.124 271.299 303.745 271.251 302.553 271.133C301.925 271.07 301.403 270.931 300.84 270.635L300.519 270.169L300.715 269.513C302.461 268.967 304.025 271.131 305.619 269.625L305.825 268.74C304.719 268.007 302.316 268.488 300.879 268.109Z"/><path fill="#020A04" transform="matrix(1.66724 0 0 1.66744 0 6.10352e-05)" d="M424.464 261.235C426.227 261.636 428.433 260.886 430.04 261.88C430.665 262.266 430.997 262.96 431.11 263.665C431.318 264.966 430.877 266.782 430.002 267.788C429.392 268.489 428.809 268.429 427.958 268.507L426.258 268.269C425.777 268.774 425.907 269.497 425.821 270.174C425.724 270.944 425.758 271.198 425.145 271.675C424.792 271.567 424.666 271.615 424.464 271.28C424.02 270.543 424.154 262.329 424.464 261.235ZM428.355 267.083C429.53 266.751 430.226 265.544 429.925 264.362C429.624 263.179 428.435 262.452 427.245 262.722C426.447 262.903 425.81 263.502 425.581 264.288C425.353 265.074 425.568 265.922 426.145 266.503C426.721 267.084 427.568 267.306 428.355 267.083Z"/><path fill="#1C4935" transform="matrix(1.66724 0 0 1.66744 0 6.10352e-05)" d="M450.489 257.348C450.662 257.487 450.765 257.554 450.905 257.745C451.614 258.71 451.549 266.418 451.443 267.981C449.941 268.714 447.322 268.43 445.654 268.321C444.951 267.369 444.584 265.866 444.427 264.695C444.339 264.039 444.47 263.337 444.91 262.822C446.062 261.476 448.04 261.473 449.661 261.415C450.245 260.074 449.599 258.721 450.489 257.348Z"/><path fill="#1C4935" transform="matrix(1.66724 0 0 1.66744 0 6.10352e-05)" d="M249.301 261.113C250.921 261.587 252.924 260.795 254.365 261.746C255.226 262.314 255.733 263.29 255.896 264.289C256.07 265.35 255.907 266.624 255.215 267.484C254.656 268.177 253.902 268.358 253.064 268.493C252.263 268.457 251.523 268.255 250.861 268.737C250.936 269.433 251.055 270.171 250.955 270.868C250.886 271.356 250.835 271.28 250.477 271.56L249.983 271.147C249.169 267.758 249.284 264.572 249.301 261.113ZM253.038 267.259C253.688 266.713 254.284 266.258 254.392 265.367C254.466 264.752 254.359 264.153 253.979 263.653C253.425 262.923 252.644 262.586 251.781 262.378C250.959 263.101 250.519 264.031 250.476 265.141C250.451 265.81 250.781 266.333 251.136 266.871C251.794 267.226 252.299 267.239 253.038 267.259Z"/><path fill="#1C4935" transform="matrix(1.66724 0 0 1.66744 0 6.10352e-05)" d="M372.45 259.589C372.595 259.697 372.696 259.76 372.814 259.89C374.653 261.917 372.929 263.198 372.876 265.305C372.858 266.067 373.118 266.66 373.641 267.19C374.469 267.3 374.739 267.452 375.481 267.03C375.571 266.675 375.659 266.315 375.774 265.967C376.246 264.536 377.834 264.652 379.001 264.007C379.436 263.766 379.395 263.729 379.537 263.251L379.05 262.632C378.062 262.349 377.461 262.732 376.528 263.073L376.081 262.728C376.078 262.009 376.069 262.009 376.529 261.458C377.729 261.236 378.83 261.3 380.039 261.372C381.771 262.391 380.628 265.691 381.639 267.442C381.675 267.504 381.717 267.563 381.756 267.624L381.626 268.164C379.54 268.921 377.467 267.495 375.547 267.75C374.226 267.925 373.812 268.831 372.334 268.35C372.079 267.991 371.91 267.689 371.811 267.254C371.324 265.108 371.211 261.401 372.45 259.589Z"/><path fill="#142816" transform="matrix(1.66724 0 0 1.66744 0 6.10352e-05)" d="M290.261 261.199C290.941 261.283 291.825 261.337 292.425 261.676C293.161 262.092 293.751 263.064 293.982 263.852C294.263 264.809 294.134 265.805 293.656 266.677C293.065 267.754 292.353 268.173 291.217 268.55C290.902 268.545 290.589 268.532 290.274 268.522C289.677 268.503 289.085 268.514 288.547 268.214C287.629 267.701 286.967 266.597 286.736 265.595C286.506 264.596 286.783 263.515 287.379 262.695C288.143 261.644 289.032 261.417 290.261 261.199ZM290.941 267.426C291.673 266.674 292.329 266.099 292.618 265.056C292.5 264.289 292.459 263.909 291.799 263.386C291.389 263.061 290.708 262.74 290.224 262.542C289.298 263.008 288.564 263.381 288.243 264.428C288.074 264.978 288.032 265.646 288.342 266.156C288.71 266.76 289.181 267.221 289.89 267.365C290.225 267.434 290.599 267.422 290.941 267.426Z"/><path fill="#142816" transform="matrix(1.66724 0 0 1.66744 0 6.10352e-05)" d="M440.288 261.277C440.908 261.363 441.615 261.494 442.192 261.738C442.87 262.025 443.405 262.76 443.664 263.428C444.038 264.39 443.951 265.383 443.537 266.316C442.874 267.814 442.061 268.123 440.617 268.631L437.15 267.992C436.985 266.332 436.385 263.721 437.473 262.325C438.199 261.394 439.206 261.391 440.288 261.277Z"/><path fill="#142816" transform="matrix(1.66724 0 0 1.66744 0 6.10352e-05)" d="M205.457 261.14C207.992 261.667 213.029 260.352 214.918 262.093C215.87 262.97 215.836 264.287 215.816 265.479C215.8 266.445 215.877 267.58 215.172 268.262C213.977 268.068 214.431 263.532 213.073 262.446C212.727 262.432 212.487 262.44 212.17 262.598C211.536 262.914 211.509 262.942 211.296 263.622C211.273 264.748 211.227 267.787 210.628 268.618C208.967 267.304 210.465 264.463 209.45 262.7C208.837 262.45 208.524 262.397 207.897 262.685C206.212 263.458 207.297 266.972 206.576 268.521L206.041 268.66C204.95 267.285 205.353 262.892 205.457 261.14Z"/><path fill="#020A04" transform="matrix(1.66724 0 0 1.66744 0 6.10352e-05)" d="M238.357 261.24C239.258 261.2 240.268 261.128 241.154 261.301C241.994 261.465 242.737 262.253 243.177 262.947C243.517 263.483 243.541 263.787 243.394 264.382C242.126 265.562 240.137 265.363 238.512 265.397L238.272 265.793C238.497 266.477 238.731 266.737 239.282 267.193C240.051 267.334 240.511 267.326 241.269 267.126L242.129 266.439L242.65 266.648L242.764 267.26L242.274 267.964C241.263 268.569 240.254 268.799 239.092 268.472C238.196 268.219 237.54 267.609 237.123 266.785C236.49 265.536 236.536 263.801 237.026 262.509C237.319 261.738 237.676 261.57 238.357 261.24ZM240.868 264.063L241.438 263.963C241.576 263.579 241.666 263.6 241.465 263.2C241.249 262.77 240.798 262.393 240.334 262.258C239.958 262.149 239.519 262.151 239.129 262.142C238.666 262.752 238.336 262.968 238.345 263.749C239.105 264.183 240.015 264.065 240.868 264.063Z"/><path fill="#1C4935" transform="matrix(1.66724 0 0 1.66744 0 6.10352e-05)" d="M414.194 261.434C415.544 261.397 417.222 261.206 418.32 262.16C418.944 262.703 419.467 263.434 419.517 264.27C418.357 265.885 415.838 265.126 414.1 265.788L414.01 266.225C414.693 266.98 415.192 267.009 416.126 267.272C416.574 267.253 417.009 267.257 417.457 267.278C417.972 267.303 417.941 267.275 418.286 267.656C418.232 267.725 418.187 267.803 418.123 267.864C417.429 268.522 415.974 268.58 415.077 268.466C414.211 268.357 413.372 267.973 412.889 267.22C412.2 266.145 412.384 264.836 412.607 263.652C412.851 262.359 413.135 262.156 414.194 261.434ZM416.872 264.442L417.721 264.099L417.879 263.675C417.315 262.979 416.399 262.798 415.568 262.56C414.892 263.008 414.495 263.157 414.14 263.898C414.458 264.319 414.543 264.379 415.093 264.478C415.669 264.582 416.293 264.492 416.872 264.442Z"/><path fill="#1C4935" transform="matrix(1.66724 0 0 1.66744 0 6.10352e-05)" d="M217.765 261.479C218.911 261.384 220.846 261.059 221.909 261.478C222.146 261.571 222.287 261.656 222.395 261.889C223.118 263.453 223.614 266.679 223.035 268.312C221.413 268.303 219.815 268.407 218.199 268.531C217.926 268.357 217.599 268.161 217.391 267.912C216.875 267.293 216.868 266.93 217.017 266.186C217.898 265.084 219.602 264.583 220.832 263.901C221.034 263.326 221.059 263.239 220.929 262.647C220.01 262.364 218.768 262.886 217.776 263.005L217.462 262.595L217.765 261.479Z"/><path fill="#1C4935" transform="matrix(1.66724 0 0 1.66744 0 6.10352e-05)" d="M277.509 261.269L277.817 261.299C278.832 261.405 279.698 261.453 280.368 262.294C281.023 263.115 281.353 263.771 281.244 264.81C279.975 265.846 277.864 265.212 276.306 265.244C276.066 265.733 276.089 265.824 276.149 266.372C276.783 267.046 277.598 267.094 278.465 267.254C279.105 267.182 279.497 267.144 280.11 267.414L279.996 267.794C278.201 268.443 276.987 268.368 275.128 268.126C274.884 266.467 274.051 263.416 275.22 262.05C275.809 261.363 276.68 261.392 277.509 261.269ZM279.643 264.343C279.539 263.505 279.551 263.43 278.945 262.774C278.057 262.481 277.382 262.488 276.454 262.542C276.195 263.203 275.972 263.401 276.244 264.077C277.296 264.491 278.522 264.216 279.643 264.343Z"/><path fill="#142816" transform="matrix(1.66724 0 0 1.66744 0 6.10352e-05)" d="M309.069 261.567C310.534 261.376 312.286 261.131 313.716 261.555C313.791 261.687 313.9 261.865 313.96 262.012C314.45 263.22 315.133 267.183 314.694 268.314C313.124 268.217 311.699 268.257 310.139 268.459C309.513 268.25 309.062 268.017 308.759 267.393C308.397 266.645 308.463 266.382 308.737 265.619C309.762 264.625 311.457 264.24 312.789 263.748L312.998 263.255L312.764 262.752C311.571 262.314 310.296 262.837 309.039 262.571L308.79 262.148L309.069 261.567Z"/><path fill="#1C4935" transform="matrix(1.66724 0 0 1.66744 0 6.10352e-05)" d="M261.213 261.446C262.307 261.327 263.656 261.27 264.745 261.444C266.633 261.746 265.511 264.568 265.816 265.848C265.925 266.308 266.708 267.216 266.995 267.655L266.834 267.918C265.327 268.459 263.287 268.259 261.672 268.376C260.739 268.239 260.324 268.147 259.724 267.391C259.811 265.19 263.471 264.884 264.296 263.049C263.701 262.313 261.411 262.865 260.326 262.612L260.343 262.194L261.213 261.446Z"/><path fill="#1C4935" transform="matrix(1.66724 0 0 1.66744 0 6.10352e-05)" d="M230.8 257.648C232.278 259.239 231.579 261.332 231.761 263.363C232.521 263.575 233.654 261.361 234.676 261.169C235.09 261.091 235.105 261.221 235.42 261.449C235.163 262.625 234.141 263.718 233.442 264.684C234.245 265.861 234.936 267.002 236.152 267.793L235.839 268.083C233.571 268.525 233.834 266.205 232.217 265.868C231.854 266.737 231.558 267.475 230.925 268.192L230.555 268.077C230.412 267.706 230.306 267.339 230.234 266.946C229.974 265.517 229.651 259.831 230.143 258.573C230.254 258.289 230.615 257.908 230.8 257.648Z"/><path fill="#020A04" transform="matrix(1.66724 0 0 1.66744 0 6.10352e-05)" d="M453.809 260.949C455.41 262.032 454.198 264.832 455.154 266.51C455.491 267.101 455.666 267.079 456.286 267.254C456.498 267.184 457.216 267.032 457.348 266.906C457.927 266.352 457.858 262.444 458.515 261.306C459.099 261.643 459.097 262.145 459.299 262.772C459.258 264.419 459.386 266.078 459.467 267.723C459.194 267.847 458.92 267.968 458.639 268.071C457.443 268.509 455.81 268.84 454.628 268.244C453.933 267.894 453.558 267.317 453.344 266.584C452.916 265.116 453.065 262.245 453.809 260.949Z"/><path fill="#020A04" transform="matrix(1.66724 0 0 1.66744 0 6.10352e-05)" d="M316.446 261.065C318.152 261.629 319.919 261.162 321.635 261.705C321.93 261.948 322.111 262.125 322.242 262.495C322.832 264.167 322.562 266.882 321.754 268.434L321.44 268.402C320.91 267.013 321.019 265.486 321.006 264.02C320.599 263.19 320.202 262.581 319.308 262.274C316.982 263.253 318.488 266.975 317 268.339C315.946 266.956 316.273 262.84 316.446 261.065Z"/><path fill="#1C4935" transform="matrix(1.66724 0 0 1.66744 0 6.10352e-05)" d="M352.897 261.151C353.813 261.249 354.662 261.372 355.547 261.636C355.931 262.022 356.151 262.084 356.188 262.655C355.045 263.102 353.999 262.309 352.983 262.878C353.552 264.25 355.532 264.743 356.168 266.098C356.364 266.517 356.328 266.905 356.148 267.328C355.82 268.095 354.937 268.257 354.236 268.515C353.151 268.52 352.082 268.514 351.175 267.859L351.132 267.338C352.158 266.417 353.403 267.58 354.64 266.969C354.422 266.149 352.424 265.167 351.774 264.444C351.245 263.855 351.305 263.438 351.341 262.718C351.77 261.936 352.118 261.586 352.897 261.151Z"/><path fill="#020A04" transform="matrix(1.66724 0 0 1.66744 0 6.10352e-05)" d="M386.636 261.381C388.37 261.909 390.093 261.117 391.839 261.565C392.12 261.823 392.314 262.02 392.437 262.391C392.984 264.04 392.687 266.806 391.893 268.33L391.592 268.287C391.168 266.844 391.264 265.261 391.254 263.767C391.081 263.179 391.014 262.942 390.515 262.54C390.185 262.556 389.837 262.575 389.519 262.671C386.325 263.623 388.843 266.605 387.768 268.581L387.402 268.337C386.597 266.501 386.768 263.4 386.636 261.381Z"/><path fill="#142816" transform="matrix(1.66724 0 0 1.66744 0 6.10352e-05)" d="M365.978 261.19C366.868 261.173 368.081 261.22 368.915 261.57C369.483 261.808 369.462 261.958 369.653 262.505C368.866 263.041 367.526 262.464 366.508 262.71L366.319 263.181C366.786 264.31 368.51 264.606 369.415 265.429C369.91 265.88 369.889 266.334 369.911 266.955C369.553 267.725 369.266 268.021 368.564 268.492C367.846 268.468 367.043 268.494 366.339 268.361C365.529 268.208 365.293 267.963 364.806 267.326L364.879 266.941C366.021 266.519 367.462 267.579 368.479 266.893C367.941 265.323 365.49 265.298 364.921 263.191C365.167 262.168 365.261 261.958 365.978 261.19Z"/><path fill="#020A04" transform="matrix(1.66724 0 0 1.66744 0 6.10352e-05)" d="M330.441 261.215C331.2 261.327 331.86 261.437 332.569 261.735L332.927 262.673L332.689 262.912C332.011 262.84 331.329 262.762 330.649 262.731C329.748 262.69 329.372 262.907 328.732 263.507C328.477 264.165 328.394 264.67 328.474 265.381C328.541 265.974 328.765 266.485 329.262 266.827C330.217 267.485 331.306 267.402 332.393 267.227L332.663 266.957L333.032 267.209L332.857 267.788C332.511 268.073 332.243 268.286 331.8 268.397C330.748 268.662 329.45 268.573 328.509 268.001C327.749 267.539 327.245 266.779 327.046 265.918C326.774 264.746 327.059 263.425 327.77 262.457C328.465 261.511 329.355 261.4 330.441 261.215Z"/><path fill="#142816" transform="matrix(1.66724 0 0 1.66744 0 6.10352e-05)" d="M269.73 261.491C270.304 261.474 270.881 261.454 271.455 261.466C272.395 261.487 273.243 261.504 273.899 262.202C272.979 263.066 271.015 262.664 269.846 263.374C269.185 263.776 269.11 264.108 268.959 264.829C269.1 265.38 269.209 265.92 269.589 266.361C270.257 267.135 271.664 267.199 272.626 267.28L273.483 267.339L273.732 267.676C272.736 268.3 271.242 268.768 270.062 268.517C269.338 268.363 268.722 267.966 268.338 267.325C267.742 266.33 267.667 264.783 267.94 263.678C268.2 262.625 268.846 262.046 269.73 261.491Z"/><path fill="#020A04" transform="matrix(1.66724 0 0 1.66744 0 6.10352e-05)" d="M462.405 261.356C464.067 261.372 465.594 261.408 467.132 262.095L467.256 262.486C466.854 262.66 466.431 262.797 466.02 262.947C465.482 262.804 464.889 262.614 464.334 262.566C463.719 262.513 463.144 262.717 462.689 263.137C462.148 263.636 461.895 264.387 461.911 265.112C461.93 265.969 462.294 266.488 462.897 267.048C463.553 267.28 463.904 267.27 464.595 267.151C465.217 267.044 465.749 266.981 466.379 266.987L466.606 267.487C466.23 267.988 465.922 268.142 465.294 268.253C464.308 268.427 462.494 268.505 461.679 267.906C461.075 267.462 460.623 266.666 460.544 265.926C460.338 263.991 461.27 262.758 462.405 261.356Z"/><path fill="#020A04" transform="matrix(1.66724 0 0 1.66744 0 6.10352e-05)" d="M471.567 267.712C473.119 266.943 474.416 267.408 475.974 266.898C475.784 266.185 475.45 266.113 474.812 265.75C473.884 265.223 472.922 264.859 472.577 263.753C472.424 263.262 472.518 262.881 472.634 262.394C473.109 261.755 473.497 261.409 474.312 261.282C475.132 261.153 476.136 261.271 476.782 261.83C476.975 261.998 477.085 262.129 477.268 262.326L477.242 262.754C476.446 262.854 474.253 262.462 473.784 262.835C474.602 264.376 477.501 265.508 477.476 267.333C476.905 268.015 476.365 268.272 475.459 268.391C474.21 268.555 472.837 268.058 471.615 267.832L471.567 267.712Z"/><path fill="#1C4935" transform="matrix(1.66724 0 0 1.66744 0 6.10352e-05)" d="M467.132 262.095C468.468 261.323 468.201 260.31 469.542 259.958L469.969 260.258C470.289 262.202 468.721 265.908 470.551 267.195C470.868 267.418 471.213 267.557 471.567 267.712L471.615 267.832C470.903 268.306 470.458 268.407 469.611 268.474C467.826 267.48 468.714 265.011 468.169 263.293C467.995 262.744 467.735 262.745 467.256 262.486L467.132 262.095Z"/><path fill="#1C4935" transform="matrix(1.66724 0 0 1.66744 0 6.10352e-05)" d="M225.385 261.565C226.327 261.475 227.564 261.28 228.49 261.462C229.098 261.58 229.282 261.925 229.568 262.42C228.87 263.074 227.641 263.155 226.72 263.507C226.327 264.344 226.491 265.651 226.487 266.575C226.499 267.066 226.432 267.482 226.354 267.963L225.912 268.256C225.059 267.275 225.084 265.646 225.029 264.387C224.985 263.394 224.704 262.311 225.385 261.565Z"/><path fill="#142816" transform="matrix(1.66724 0 0 1.66744 0 6.10352e-05)" d="M295.355 261.367C296.245 261.349 298.956 261.252 299.622 261.743C299.1 262.522 298.399 262.766 297.665 263.277C296.858 263.839 296.907 264.515 296.742 265.405C296.769 266.356 296.778 267.174 296.557 268.11L296.155 268.176L296.297 268.638C295.211 267.409 295.463 263.038 295.355 261.367Z"/><path fill="#1C4935" transform="matrix(1.66724 0 0 1.66744 0 6.10352e-05)" d="M410.258 257.646C410.545 257.82 410.648 257.954 410.802 258.263C411.299 259.26 411.633 267.557 411.278 268.629C411.147 268.585 411.009 268.556 410.883 268.499C410.412 268.285 410.274 268.13 410.162 267.641C409.686 265.574 409.199 259.358 410.258 257.646Z"/><path fill="#142816" transform="matrix(1.66724 0 0 1.66744 0 6.10352e-05)" d="M435.762 261.301L436.157 261.269L436.446 261.579C435.91 262.379 435.012 262.777 434.196 263.252C433.911 265.149 434.246 267.298 433.505 269.068C433.47 269.008 433.433 268.948 433.4 268.886C433.346 268.783 433.298 268.676 433.244 268.573C432.346 266.859 432.24 264.028 432.482 262.115C433.106 261.559 434.889 261.457 435.762 261.301Z"/><path fill="#1C4935" transform="matrix(1.66724 0 0 1.66744 0 6.10352e-05)" d="M244.681 266.165C244.985 264.407 244.464 263.703 244.14 262.084C244.461 261.264 244.719 260.451 245.297 259.772C245.961 259.774 245.96 259.796 246.474 260.222C247.168 262.245 246.113 263.775 246.098 265.782L246.097 266.139L244.681 266.165Z"/><path fill="#020A04" transform="matrix(1.66724 0 0 1.66744 0 6.10352e-05)" d="M324.754 258.699L325.483 259.201C325.55 261.883 325.927 264.539 325.719 267.231C325.649 268.138 325.572 268.318 324.876 268.909C324.326 266.883 324.087 260.611 324.754 258.699Z"/><path fill="#020A04" transform="matrix(1.66724 0 0 1.66744 0 6.10352e-05)" d="M384.175 260.977C384.26 261.011 384.354 261.029 384.431 261.079C384.983 261.437 384.893 262.61 384.929 263.225C385.023 264.838 385.271 267.491 384.202 268.69C383.738 268.358 383.422 268.228 383.297 267.626C382.997 266.169 383.229 262.117 384.175 260.977Z"/><path fill="#1C4935" transform="matrix(1.66724 0 0 1.66744 0 6.10352e-05)" d="M362.418 266.768L362.403 266.466C362.36 265.707 361.62 262.496 361.788 262.116C361.892 261.881 362.125 261.729 362.293 261.536L362.901 261.423C363.52 262.008 363.593 262.744 363.609 263.571C363.637 264.956 363.494 266.349 363.354 267.725C363.084 267.975 362.965 268.095 362.612 268.223C362.497 267.81 362.704 267.455 362.834 267.054L362.418 266.768Z"/><path fill="#142816" transform="matrix(1.66724 0 0 1.66744 0 6.10352e-05)" d="M358.722 265.87C358.901 266.312 358.956 266.791 359.408 267C360.144 267.341 361.604 266.887 362.418 266.768L362.834 267.054C362.704 267.455 362.497 267.81 362.612 268.223C361.203 268.136 359.577 268.734 358.271 268.159C357.682 267.407 357.711 267.132 357.6 266.207L358.722 265.87Z"/><path fill="#1C4935" fill-opacity="0.98823529" transform="matrix(1.66724 0 0 1.66744 0 6.10352e-05)" d="M246.097 266.139C246.921 266.872 247.47 267.12 247.827 268.19L247.676 268.682C247.014 268.826 246.498 268.672 245.896 268.327C245.038 267.835 244.89 267.065 244.681 266.165L246.097 266.139Z"/><path fill="#1C4935" transform="matrix(1.66724 0 0 1.66744 0 6.10352e-05)" d="M357.6 266.207C357.64 264.828 357.508 263.268 358.161 262.016L358.505 262.011C359.016 263.214 358.798 264.595 358.722 265.87L357.6 266.207Z"/></svg>